<?xml version="1.0" encoding="utf-8"?>
 <svg width="190" height="80" viewBox="0 0 190 80" fill="none" xmlns="http://www.w3.org/2000/svg">
<path d="M126.217 43.9951C123.637 47.5751 122.097 51.9551 122.007 56.3251C121.937 59.3451 122.417 62.4051 123.457 65.2451C125.107 69.7951 128.387 73.5751 132.767 75.6651C136.757 77.5651 141.357 78.0051 145.727 77.3251C152.607 76.2551 159.227 72.1451 162.137 65.8151C165.927 57.5751 163.277 46.8951 156.727 41.1251C150.947 36.0351 141.627 34.5551 134.307 37.5051C131.057 38.8151 128.267 41.1551 126.227 43.9851L126.217 43.9951Z" fill="#EEF7FF"></path>
<path d="M120.438 53.2681C120.114 52.0061 118.817 49.4935 118.817 49.4935C118.701 49.6556 117.949 50.9061 117.729 51.9713C117.729 52.006 117.717 52.0408 117.729 52.0755C117.74 52.1103 117.775 52.1218 117.798 52.145C118.007 52.2839 118.215 52.3997 118.423 52.5387C119.072 52.9786 119.604 53.6039 120.299 53.9628C120.369 53.9975 120.45 54.0207 120.508 53.9628C120.531 53.9396 120.531 53.8933 120.531 53.8586C120.531 53.6502 120.496 53.4534 120.438 53.2565V53.2681Z" fill="white"></path>
<path d="M120.379 53.6386C118.098 50.7672 114.844 51.1145 112.795 52.2955C108.603 54.727 108.129 60.0878 112.772 62.5309C114.068 63.214 115.539 63.5845 116.998 63.5035C118.051 63.4456 119.117 63.1561 120.159 63.295C120.969 63.4108 121.722 63.7698 122.474 64.094C125.612 65.4602 129.294 66.2244 132.409 64.8002C133.902 64.1171 135.222 62.9361 136.843 62.6698C138.036 62.473 139.252 62.7972 140.456 62.8319C142.748 62.8898 145.064 61.813 146.419 59.9605C147.773 58.1079 148.097 55.5259 147.148 53.4418C146.199 51.3577 143.976 49.8872 141.683 49.9104C140.282 49.9335 138.777 50.443 137.515 49.8178C136.646 49.3894 136.114 48.521 135.489 47.7915C131.459 43.1833 123.899 42.4191 118.677 49.8641" fill="white"></path>
<path d="M120.553 48.1041C120.785 47.8378 121.259 47.421 121.931 46.8537C122.278 46.5874 122.695 46.3211 123.158 46.02C123.656 45.7769 124.177 45.4527 124.802 45.2559C126.03 44.7927 127.57 44.5148 129.237 44.7464C130.082 44.839 130.927 45.1169 131.784 45.4643C132.606 45.8811 133.463 46.3442 134.204 47.0274C134.598 47.3284 134.922 47.7336 135.281 48.1041C135.617 48.4978 135.929 48.9378 136.335 49.3662C136.728 49.7946 137.272 50.1883 137.898 50.3619C138.511 50.5356 139.148 50.524 139.739 50.4777C140.931 50.3504 142.031 50.1535 143.131 50.4893C144.219 50.7903 145.238 51.4387 145.991 52.3303C147.542 54.1018 147.716 56.9269 146.524 59.0573C145.354 61.1994 142.807 62.5309 140.329 62.3919C139.09 62.3456 137.701 61.952 136.277 62.3572C134.887 62.7393 133.81 63.5845 132.711 64.1634C130.522 65.356 127.917 65.2865 125.59 64.696C124.42 64.395 123.297 63.9782 122.209 63.4803C121.653 63.2372 121.074 62.994 120.426 62.8782C119.777 62.7624 119.141 62.7972 118.55 62.8666C117.381 63.0287 116.362 63.1445 115.331 62.9477C114.324 62.7624 113.351 62.4035 112.552 61.8709C111.73 61.373 111.047 60.7246 110.596 59.9952C110.144 59.2542 109.936 58.4321 109.924 57.6564C109.901 56.0701 110.665 54.7386 111.522 53.8818C113.305 52.0987 115.134 51.9366 115.667 51.9134C117.172 51.8324 118.33 52.3419 119.06 52.8166C119.812 53.2913 120.206 53.6734 120.356 53.6502C120.472 53.6502 120.356 53.2102 119.65 52.4576C119.28 52.1103 118.747 51.6703 117.96 51.3577C117.184 51.0451 116.142 50.8598 114.972 51.0451C114.37 51.1493 112.251 51.4966 110.387 53.7428C109.947 54.3102 109.542 54.9933 109.276 55.7922C109.033 56.5911 108.917 57.5058 109.067 58.4553C109.218 59.3931 109.623 60.3541 110.283 61.153C110.943 61.9635 111.835 62.5888 112.807 63.0866C113.791 63.5614 114.891 63.8856 116.061 63.9666C117.253 64.0708 118.423 63.735 119.488 63.7235C120.553 63.6771 121.56 64.2213 122.718 64.696C123.865 65.1592 125.08 65.5528 126.354 65.7844C127.628 66.016 128.959 66.097 130.302 65.877C131.634 65.6918 132.942 65.0897 134.054 64.395C135.177 63.7119 136.265 63.0519 137.492 63.0403C138.72 62.994 140.074 63.3877 141.487 63.2024C144.254 62.913 146.871 60.9909 147.716 58.3163C148.156 57.008 148.202 55.5838 147.855 54.2754C147.519 52.9555 146.697 51.7861 145.678 50.9756C144.648 50.1535 143.397 49.6325 142.112 49.563C140.815 49.4936 139.658 49.8641 138.616 49.7599C137.55 49.702 136.856 48.9262 136.184 48.0694C135.489 47.201 134.679 46.4484 133.834 45.8464C132.108 44.6538 130.186 44.0401 128.438 44.0054C126.69 43.9475 125.161 44.3643 123.969 44.8853C122.799 45.4643 121.908 46.0663 121.317 46.5758C120.715 47.0852 120.345 47.4442 120.206 47.6063C119.557 48.2778 119.175 48.8452 118.944 49.2388C118.712 49.6325 118.631 49.8409 118.689 49.8872C118.747 49.922 118.932 49.7946 119.233 49.4936C119.534 49.1925 119.94 48.7062 120.542 48.1273L120.553 48.1041Z" fill="#121C2D"></path>
<path d="M38.3102 20.05C35.1402 24.45 33.2502 29.82 33.1302 35.19C33.0502 38.91 33.6402 42.65 34.9102 46.15C36.9402 51.73 40.9702 56.38 46.3502 58.95C51.2502 61.29 56.9002 61.83 62.2602 61C70.7102 59.69 78.8502 54.63 82.4202 46.87C87.0702 36.75 83.8202 23.63 75.7702 16.54C68.6702 10.29 57.2202 8.47001 48.2302 12.09C44.2402 13.7 40.8102 16.57 38.3002 20.05H38.3102Z" fill="#EDF6FF"></path>
<path d="M31.4976 41.1693C31.579 41.1111 31.6605 41.0413 31.7303 40.9482C31.9514 40.6806 32.0794 40.3431 32.219 40.029C33.9063 36.0144 37.467 32.7097 42.1215 33.3497C44.4023 33.6639 46.4502 34.9206 48.1026 36.4566C48.4982 36.829 49.0684 37.5039 49.6153 37.5155C49.8481 37.5155 50.3833 37.3992 50.6044 37.3293C53.4204 36.5032 55.2473 36.2704 57.9935 37.3061C60.7396 38.3417 63.2182 41.0181 63.7302 43.9039C63.9396 45.0675 63.7884 46.2893 63.4858 47.4413C63.1484 48.7329 62.0546 49.9664 60.9956 50.7227C60.0764 51.386 58.9826 51.8166 57.8538 51.9329C56.5855 52.0726 55.3404 52.1656 54.072 52.026C52.6873 51.8747 51.2211 51.4558 49.8481 51.8631C49.115 52.0842 48.4633 52.5147 47.7884 52.8755C45.659 54.0042 42.9477 54.3533 40.8648 53.1431C39.8525 52.5496 39.003 51.6304 37.8743 51.3046C36.4663 50.9089 34.8488 51.4442 33.4641 51.7351C31.2881 52.2006 29.2867 52.2006 27.7623 50.3853C25.7725 48.0231 25.5398 43.5199 28.635 41.914C28.9725 41.7395 29.3332 41.6348 29.7056 41.5533C30.2758 41.437 30.9972 41.4835 31.4976 41.1344V41.1693Z" fill="white"></path>
<path d="M33.8009 37.7599C34.2315 37.2363 35.302 35.6188 37.6642 34.4552C38.8395 33.9315 40.3871 33.5825 42.0511 33.7686C43.7267 33.9432 45.4722 34.7228 47.0547 35.9679C47.4503 36.2821 47.846 36.6195 48.23 36.9686L48.8118 37.5272C49.091 37.7948 49.4634 37.8995 49.8241 37.8995C49.9987 37.8995 50.1965 37.8646 50.3478 37.8064L50.7318 37.6784C50.9878 37.5853 51.2554 37.5272 51.523 37.4573C52.0583 37.3293 52.6052 37.2363 53.1638 37.1781C55.3863 36.957 57.8299 37.3293 59.8081 38.6675C61.7397 39.9941 63.299 42.2399 63.4735 44.6835C63.555 45.8937 63.2874 47.1504 62.7055 48.2209C62.1121 49.2915 61.1812 50.1758 60.1106 50.8158C57.9463 52.1075 55.2932 52.4915 52.8845 51.7002C52.2561 51.5373 51.5812 51.386 50.8714 51.3744C50.1616 51.3627 49.4401 51.5606 48.8467 51.8398C47.6365 52.3635 46.5776 53.0966 45.4954 53.3526C44.3783 53.5969 43.2031 53.4456 42.1093 53.1082C41.5624 52.9337 41.0154 52.7358 40.55 52.4682C40.0613 52.2006 39.5842 51.8631 39.0489 51.5722C38.5253 51.2813 37.9086 51.0369 37.2569 51.002C36.6053 50.9671 36.0118 51.13 35.4766 51.2697C34.4409 51.5838 33.4635 51.77 32.4744 51.8049C30.5311 51.8864 28.7508 51.2115 27.7384 50.0013C27.2148 49.4078 26.8657 48.7329 26.6679 48.0697C26.4584 47.3948 26.4584 46.7315 26.4933 46.138C26.6562 44.9395 27.2031 44.0435 27.7151 43.4617C28.2271 42.8682 28.7042 42.5773 28.9486 42.4144C30.2286 41.6464 31.4853 41.4951 32.358 41.565C33.2307 41.6348 33.7544 41.821 33.8824 41.7162C33.9406 41.6813 33.8824 41.5882 33.7078 41.4602C33.5217 41.3206 33.2191 41.1228 32.7188 40.9832C31.7762 40.6806 29.8795 40.5293 27.9479 41.9606C27.7035 42.1701 27.1682 42.5657 26.633 43.3337C26.0977 44.0784 25.5624 45.242 25.5508 46.7082C25.5508 48.1628 26.1791 49.8849 27.5988 51.1417C29.03 52.4216 31.2177 52.922 33.3471 52.6544C34.4177 52.5613 35.5347 52.1657 36.5122 51.9446C37.4896 51.7118 38.3973 52.1657 39.3864 52.794C39.8751 53.0966 40.4336 53.434 41.0154 53.6435C41.5856 53.8646 42.1907 54.0507 42.8191 54.1787C44.0525 54.4231 45.4605 54.4231 46.7056 53.8529C47.9041 53.3409 48.9747 52.5846 50.0918 52.3053C51.2089 52.0377 52.419 52.4798 53.7339 52.7707C56.4452 53.306 59.3426 52.5496 61.5186 50.8275C62.6008 49.9664 63.4735 48.7911 63.9157 47.4646C64.3695 46.1497 64.4161 44.7068 64.0903 43.3686C63.7645 42.0304 63.0895 40.8202 62.2401 39.8079C61.4139 38.7839 60.3317 37.9461 59.1797 37.3759C56.8292 36.2472 54.2227 36.1308 51.9303 36.5846C51.3485 36.6894 50.79 36.8523 50.243 37.0384C49.7543 37.213 49.475 37.1781 49.126 36.7824C48.3347 36.0144 47.5085 35.3279 46.6474 34.7577C44.9253 33.5941 42.9936 32.9774 41.2365 33.0006C39.4911 33.0006 37.9667 33.4777 36.8264 34.1177C35.686 34.7694 34.9064 35.5257 34.3711 36.0959C33.8358 36.6777 33.5333 37.0966 33.4169 37.2712C32.358 38.7955 32.1718 39.7148 32.2766 39.7613C32.4162 39.8312 32.8468 39.0632 33.8242 37.7366L33.8009 37.7599Z" fill="#121C2D"></path>
<path d="M116.89 13.48H97.3597C96.4397 13.48 95.5497 13.85 94.9097 14.5L67.8897 42.22C66.6297 43.51 66.6497 45.54 67.9297 46.8L85.8597 64.6C87.1797 65.91 89.3297 65.92 90.6497 64.62L118.36 37.56C118.95 36.98 119.3 36.21 119.34 35.39L120.26 16.92C120.35 15.04 118.82 13.46 116.89 13.46V13.48ZM116.26 18.54C115.66 18.54 115.17 18.07 115.17 17.48C115.17 16.89 115.66 16.42 116.26 16.42C116.86 16.42 117.35 16.89 117.35 17.48C117.35 18.07 116.86 18.54 116.26 18.54Z" fill="#F22F46"></path>
<path fill-rule="evenodd" clip-rule="evenodd" d="M103.572 40.1271C104.112 38.8221 103.492 37.3259 102.187 36.7855C100.882 36.245 99.3862 36.8648 98.8457 38.1699C98.3052 39.4749 98.925 40.971 100.23 41.5115C101.535 42.052 103.031 41.4322 103.572 40.1271Z" fill="white"></path>
<path fill-rule="evenodd" clip-rule="evenodd" d="M92.5443 35.5602C93.0848 34.2551 92.465 32.759 91.1599 32.2185C89.8548 31.678 88.3587 32.2978 87.8182 33.6029C87.2778 34.908 87.8976 36.4041 89.2026 36.9446C90.5077 37.485 92.0038 36.8652 92.5443 35.5602Z" fill="white"></path>
<path fill-rule="evenodd" clip-rule="evenodd" d="M99.1202 28.5946C99.7727 28.8648 100.083 29.6129 99.8124 30.2654L93.9406 44.4436C93.6703 45.0962 92.9223 45.4061 92.2698 45.1358C91.6172 44.8656 91.3073 44.1175 91.5776 43.465L97.4494 29.2868C97.7196 28.6342 98.4677 28.3243 99.1202 28.5946Z" fill="white"></path>
                        </svg>